<svg width="430" height="139" viewBox="0 0 430 139" fill="none" xmlns="http://www.w3.org/2000/svg">
<rect width="430" height="139" rx="8" fill="black"/>
<path d="M139.96 88.4986C137.732 88.4986 135.738 87.9261 133.977 86.7812C132.217 85.6364 130.826 83.9744 129.804 81.7955C128.782 79.6165 128.271 76.9697 128.271 73.8551C128.271 70.7036 128.788 68.0445 129.822 65.8778C130.869 63.6989 132.278 62.0554 134.051 60.9474C135.824 59.8272 137.8 59.267 139.979 59.267C141.641 59.267 143.007 59.5502 144.078 60.1165C145.149 60.6705 145.999 61.3414 146.626 62.1293C147.254 62.9048 147.741 63.6373 148.085 64.3267H148.362V50.1818H155.065V88H148.491V83.5312H148.085C147.741 84.2206 147.242 84.9531 146.589 85.7287C145.937 86.492 145.075 87.1444 144.004 87.6861C142.933 88.2277 141.585 88.4986 139.96 88.4986ZM141.825 83.0142C143.241 83.0142 144.447 82.6326 145.445 81.8693C146.442 81.0937 147.199 80.0166 147.716 78.6378C148.233 77.259 148.491 75.6525 148.491 73.8182C148.491 71.9839 148.233 70.3897 147.716 69.0355C147.211 67.6813 146.46 66.6288 145.463 65.8778C144.478 65.1269 143.266 64.7514 141.825 64.7514C140.336 64.7514 139.092 65.1392 138.095 65.9148C137.098 66.6903 136.347 67.7614 135.842 69.1278C135.338 70.4943 135.085 72.0578 135.085 73.8182C135.085 75.5909 135.338 77.1728 135.842 78.5639C136.359 79.9427 137.116 81.0322 138.114 81.8324C139.123 82.6203 140.36 83.0142 141.825 83.0142ZM170.35 88.5724C168.553 88.5724 166.934 88.2524 165.494 87.6122C164.066 86.9598 162.933 85.9995 162.096 84.7315C161.271 83.4635 160.859 81.9001 160.859 80.0412C160.859 78.4408 161.154 77.1174 161.745 76.071C162.336 75.0246 163.143 74.1875 164.164 73.5597C165.186 72.9318 166.337 72.4579 167.618 72.1378C168.91 71.8054 170.246 71.5653 171.625 71.4176C173.287 71.2453 174.635 71.0914 175.669 70.956C176.703 70.8082 177.454 70.5866 177.922 70.2912C178.402 69.9834 178.642 69.5095 178.642 68.8693V68.7585C178.642 67.3674 178.229 66.2902 177.404 65.527C176.58 64.7637 175.392 64.3821 173.841 64.3821C172.203 64.3821 170.904 64.7391 169.944 65.4531C168.996 66.1671 168.356 67.0104 168.024 67.983L161.782 67.0966C162.275 65.3731 163.087 63.9328 164.22 62.7756C165.352 61.6061 166.737 60.732 168.375 60.1534C170.012 59.5625 171.822 59.267 173.804 59.267C175.17 59.267 176.53 59.4271 177.885 59.7472C179.239 60.0672 180.476 60.5966 181.596 61.3352C182.717 62.0616 183.615 63.0526 184.292 64.3082C184.982 65.5639 185.326 67.1335 185.326 69.017V88H178.9V84.1037H178.679C178.272 84.8916 177.7 85.6302 176.961 86.3196C176.235 86.9967 175.318 87.5445 174.21 87.9631C173.114 88.3693 171.828 88.5724 170.35 88.5724ZM172.086 83.6605C173.428 83.6605 174.592 83.3958 175.576 82.8665C176.561 82.3248 177.318 81.6108 177.848 80.7244C178.389 79.8381 178.66 78.8717 178.66 77.8253V74.483C178.451 74.6553 178.094 74.8153 177.589 74.9631C177.097 75.1108 176.543 75.2401 175.927 75.3509C175.312 75.4616 174.702 75.5601 174.099 75.6463C173.496 75.7325 172.973 75.8063 172.529 75.8679C171.532 76.0033 170.64 76.2249 169.852 76.5327C169.064 76.8404 168.442 77.2713 167.987 77.8253C167.531 78.367 167.304 79.0687 167.304 79.9304C167.304 81.1615 167.753 82.0909 168.652 82.7188C169.55 83.3466 170.695 83.6605 172.086 83.6605ZM206.211 59.6364V64.8068H189.906V59.6364H206.211ZM193.931 52.8409H200.616V79.4688C200.616 80.3674 200.752 81.0568 201.022 81.5369C201.306 82.0047 201.675 82.3248 202.13 82.4972C202.586 82.6695 203.091 82.7557 203.645 82.7557C204.063 82.7557 204.445 82.7249 204.789 82.6634C205.146 82.6018 205.417 82.5464 205.602 82.4972L206.728 87.723C206.371 87.8461 205.86 87.9815 205.196 88.1293C204.543 88.277 203.743 88.3632 202.795 88.3878C201.121 88.437 199.613 88.1847 198.271 87.6307C196.929 87.0644 195.864 86.1903 195.076 85.0085C194.301 83.8267 193.919 82.3494 193.931 80.5767V52.8409ZM219.964 88.5724C218.166 88.5724 216.548 88.2524 215.107 87.6122C213.679 86.9598 212.547 85.9995 211.71 84.7315C210.885 83.4635 210.472 81.9001 210.472 80.0412C210.472 78.4408 210.768 77.1174 211.359 76.071C211.95 75.0246 212.756 74.1875 213.778 73.5597C214.799 72.9318 215.951 72.4579 217.231 72.1378C218.523 71.8054 219.859 71.5653 221.238 71.4176C222.9 71.2453 224.248 71.0914 225.282 70.956C226.316 70.8082 227.067 70.5866 227.535 70.2912C228.015 69.9834 228.255 69.5095 228.255 68.8693V68.7585C228.255 67.3674 227.843 66.2902 227.018 65.527C226.193 64.7637 225.005 64.3821 223.454 64.3821C221.817 64.3821 220.518 64.7391 219.558 65.4531C218.61 66.1671 217.969 67.0104 217.637 67.983L211.396 67.0966C211.888 65.3731 212.701 63.9328 213.833 62.7756C214.966 61.6061 216.351 60.732 217.988 60.1534C219.625 59.5625 221.435 59.267 223.417 59.267C224.783 59.267 226.144 59.4271 227.498 59.7472C228.852 60.0672 230.089 60.5966 231.21 61.3352C232.33 62.0616 233.228 63.0526 233.906 64.3082C234.595 65.5639 234.94 67.1335 234.94 69.017V88H228.513V84.1037H228.292C227.886 84.8916 227.313 85.6302 226.575 86.3196C225.848 86.9967 224.931 87.5445 223.823 87.9631C222.728 88.3693 221.441 88.5724 219.964 88.5724ZM221.7 83.6605C223.041 83.6605 224.205 83.3958 225.19 82.8665C226.174 82.3248 226.932 81.6108 227.461 80.7244C228.003 79.8381 228.273 78.8717 228.273 77.8253V74.483C228.064 74.6553 227.707 74.8153 227.202 74.9631C226.71 75.1108 226.156 75.2401 225.54 75.3509C224.925 75.4616 224.316 75.5601 223.712 75.6463C223.109 75.7325 222.586 75.8063 222.143 75.8679C221.146 76.0033 220.253 76.2249 219.465 76.5327C218.677 76.8404 218.056 77.2713 217.6 77.8253C217.145 78.367 216.917 79.0687 216.917 79.9304C216.917 81.1615 217.366 82.0909 218.265 82.7188C219.164 83.3466 220.308 83.6605 221.7 83.6605ZM241.661 98.6364V59.6364H248.235V64.3267H248.623C248.968 63.6373 249.454 62.9048 250.082 62.1293C250.71 61.3414 251.559 60.6705 252.63 60.1165C253.701 59.5502 255.067 59.267 256.729 59.267C258.921 59.267 260.897 59.8272 262.657 60.9474C264.43 62.0554 265.833 63.6989 266.867 65.8778C267.914 68.0445 268.437 70.7036 268.437 73.8551C268.437 76.9697 267.926 79.6165 266.904 81.7955C265.882 83.9744 264.491 85.6364 262.731 86.7812C260.97 87.9261 258.976 88.4986 256.748 88.4986C255.123 88.4986 253.775 88.2277 252.704 87.6861C251.633 87.1444 250.771 86.492 250.119 85.7287C249.478 84.9531 248.98 84.2206 248.623 83.5312H248.346V98.6364H241.661ZM248.217 73.8182C248.217 75.6525 248.475 77.259 248.992 78.6378C249.522 80.0166 250.279 81.0937 251.263 81.8693C252.261 82.6326 253.467 83.0142 254.883 83.0142C256.36 83.0142 257.597 82.6203 258.594 81.8324C259.592 81.0322 260.343 79.9427 260.847 78.5639C261.364 77.1728 261.623 75.5909 261.623 73.8182C261.623 72.0578 261.371 70.4943 260.866 69.1278C260.361 67.7614 259.61 66.6903 258.613 65.9148C257.616 65.1392 256.372 64.7514 254.883 64.7514C253.455 64.7514 252.242 65.1269 251.245 65.8778C250.248 66.6288 249.491 67.6813 248.974 69.0355C248.469 70.3897 248.217 71.9839 248.217 73.8182ZM274.161 88V59.6364H280.643V64.3636H280.938C281.455 62.7263 282.342 61.4645 283.597 60.5781C284.865 59.6795 286.312 59.2301 287.937 59.2301C288.306 59.2301 288.719 59.2486 289.174 59.2855C289.642 59.3101 290.03 59.3532 290.337 59.4148V65.5639C290.054 65.4654 289.605 65.3793 288.989 65.3054C288.386 65.2192 287.801 65.1761 287.235 65.1761C286.016 65.1761 284.921 65.4408 283.948 65.9702C282.988 66.4872 282.231 67.2074 281.677 68.1307C281.123 69.054 280.846 70.1188 280.846 71.3253V88H274.161ZM294.778 88V59.6364H301.463V88H294.778ZM298.139 55.6108C297.08 55.6108 296.17 55.2599 295.406 54.5582C294.643 53.8442 294.261 52.9886 294.261 51.9915C294.261 50.982 294.643 50.1264 295.406 49.4247C296.17 48.7107 297.08 48.3537 298.139 48.3537C299.21 48.3537 300.121 48.7107 300.872 49.4247C301.635 50.1264 302.017 50.982 302.017 51.9915C302.017 52.9886 301.635 53.8442 300.872 54.5582C300.121 55.2599 299.21 55.6108 298.139 55.6108ZM330.755 67.1335L324.661 67.7983C324.489 67.1828 324.187 66.6042 323.756 66.0625C323.337 65.5208 322.771 65.0838 322.057 64.7514C321.343 64.419 320.469 64.2528 319.435 64.2528C318.044 64.2528 316.874 64.5544 315.926 65.1577C314.991 65.7609 314.529 66.5426 314.542 67.5028C314.529 68.3277 314.831 68.9986 315.446 69.5156C316.074 70.0327 317.108 70.4574 318.549 70.7898L323.387 71.8239C326.07 72.4025 328.065 73.3196 329.37 74.5753C330.687 75.831 331.352 77.4744 331.364 79.5057C331.352 81.2907 330.828 82.8665 329.794 84.233C328.773 85.5871 327.351 86.6458 325.529 87.4091C323.707 88.1723 321.614 88.554 319.25 88.554C315.779 88.554 312.984 87.8277 310.867 86.375C308.749 84.91 307.488 82.8726 307.081 80.2628L313.6 79.6349C313.895 80.9152 314.523 81.8816 315.483 82.5341C316.444 83.1866 317.693 83.5128 319.232 83.5128C320.82 83.5128 322.094 83.1866 323.054 82.5341C324.027 81.8816 324.513 81.0753 324.513 80.1151C324.513 79.3026 324.199 78.6316 323.571 78.1023C322.956 77.5729 321.996 77.1667 320.691 76.8835L315.853 75.8679C313.132 75.3016 311.119 74.3475 309.814 73.0057C308.509 71.6515 307.863 69.9403 307.875 67.8722C307.863 66.1241 308.337 64.6098 309.297 63.3295C310.27 62.0369 311.618 61.0398 313.341 60.3381C315.077 59.6241 317.078 59.267 319.343 59.267C322.667 59.267 325.283 59.9749 327.191 61.3906C329.111 62.8063 330.299 64.7206 330.755 67.1335ZM336.876 88V59.6364H343.265V64.456H343.598C344.189 62.831 345.167 61.563 346.534 60.652C347.9 59.7287 349.531 59.267 351.427 59.267C353.348 59.267 354.967 59.7348 356.284 60.6705C357.613 61.5937 358.549 62.8556 359.091 64.456H359.386C360.014 62.8802 361.073 61.6245 362.562 60.6889C364.064 59.741 365.843 59.267 367.899 59.267C370.509 59.267 372.638 60.0919 374.288 61.7415C375.938 63.3911 376.762 65.7978 376.762 68.9616V88H370.059V69.9957C370.059 68.2353 369.592 66.9489 368.656 66.1364C367.72 65.3116 366.575 64.8991 365.221 64.8991C363.609 64.8991 362.347 65.4039 361.436 66.4134C360.537 67.4105 360.088 68.7093 360.088 70.3097V88H353.532V69.7188C353.532 68.2538 353.089 67.0843 352.203 66.2102C351.329 65.3362 350.184 64.8991 348.768 64.8991C347.808 64.8991 346.934 65.1454 346.146 65.6378C345.358 66.1179 344.73 66.8011 344.262 67.6875C343.795 68.5616 343.561 69.5833 343.561 70.7528V88H336.876Z" fill="white"/>
<path d="M373.533 45.9925V44.0909H382.492V45.9925H379.152V55H376.873V45.9925H373.533ZM383.968 44.0909H386.812L389.816 51.4205H389.944L392.949 44.0909H395.793V55H393.556V47.8995H393.465L390.642 54.9467H389.119L386.295 47.8729H386.205V55H383.968V44.0909Z" fill="white"/>
<path d="M37 80L20 109.5L114 110L96.5 80H87L99.5 102H34.5L47 80H37Z" fill="white" stroke="#FFFAFA"/>
<path d="M67.2581 26L43 67H53.3226L67.2581 43.5L81.1935 67H91L67.2581 26Z" fill="#FFFDFD" stroke="#FFFAFA"/>
<path d="M103.5 69.5H20V77H103.5L102.5 82L116 73L102.5 64L103.5 69.5Z" fill="white" stroke="#FFFAFA"/>
<path d="M37 80L20 109.5L114 110L96.5 80H87L99.5 102H34.5L47 80H37Z" fill="white" stroke="#FFFAFA"/>
<path d="M67.2581 26L43 67H53.3226L67.2581 43.5L81.1935 67H91L67.2581 26Z" fill="#FFFDFD" stroke="#FFFAFA"/>
<path d="M103.5 69.5H20V77H103.5L102.5 82L116 73L102.5 64L103.5 69.5Z" fill="white" stroke="#FFFAFA"/>
</svg>
